<svg width="32" height="32" viewBox="0 0 32 32" fill="none" xmlns="http://www.w3.org/2000/svg">
<path d="M23.4666 7.46667H25.6M9.59998 1.06667H22.4C27.1128 1.06667 30.9333 4.88717 30.9333 9.6V22.4C30.9333 27.1128 27.1128 30.9333 22.4 30.9333H9.59998C4.88715 30.9333 1.06665 27.1128 1.06665 22.4V9.6C1.06665 4.88717 4.88715 1.06667 9.59998 1.06667ZM16 22.4C12.4654 22.4 9.59998 19.5346 9.59998 16C9.59998 12.4654 12.4654 9.6 16 9.6C19.5346 9.6 22.4 12.4654 22.4 16C22.4 19.5346 19.5346 22.4 16 22.4Z" stroke="white"/>
</svg>
